{"title":"Your Friend the Rat (2007) BDRip x264 Ukr sub","uid":10293013,"size":88688655,"categoryP":"video","categoryS":"handheld","magnet":"?xt=urn:btih:6bc3c5cbc1475a8c7fb28aefb496e127ec06bf0b&amp;dn=Your+Friend+the+Rat+%282007%29+BDRip+x264+Ukr+sub&amp;tr=udp%3A%2F%2Ftracker.openbittorrent.com%3A80&amp;tr=udp%3A%2F%2Fopen.demonii.com%3A1337&amp;tr=udp%3A%2F%2Ftracker.coppersurfer.tk%3A6969&amp;tr=udp%3A%2F%2Fexodus.desync.com%3A6969","seeders":1,"leechers":0,"uploader":"orysia","files":-1,"time":1401882726,"description":"Director: Jim Capobianco\nStars: Patton Oswalt, Peter Sohn, Lou Romano\n\nRemy and Emile plead the case for rats by illustrating the historical and scientific facts about the species and their interaction with humans.\n\nFormat                                   : MPEG-4\nFormat profile                           : Base Media\nCodec ID                                 : isom\nFile size                                : 84.6 MiB\nDuration                                 : 11mn 17s\nOverall bit rate mode                    : Variable\nOverall bit rate                         : 1 048 Kbps\nMovie name                               : Your Friend the Rat*2007 /antusyrzhuk\nGenre                                    : Animation\nRecorded date                            : 2007\nComment                                  : http://cinemasterpiece(dot)wordpress(dot)com/\n\nVideo\nID                                       : 1\nFormat                                   : AVC\nFormat/Info                              : Advanced Video Codec\nFormat profile                           : &lt;a class=&quot;__cf_email__&quot; href=&quot;/cdn-cgi/l/email-protection&quot; data-cfemail=&quot;d69bb7bfb8969ae5f8e7&quot;&gt;[email&amp;#160;protected]&lt;/a&gt;&lt;script cf-hash='f9e31' type=&quot;text/javascript&quot;&gt;\n/* &lt;![CDATA[ */!function(){try{var t=&quot;currentScript&quot;in document?document.currentScript:function(){for(var t=document.getElementsByTagName(&quot;script&quot;),e=t.length;e--;)if(t[e].getAttribute(&quot;cf-hash&quot;))return t[e]}();if(t&amp;&amp;t.previousSibling){var e,r,n,i,c=t.previousSibling,a=c.getAttribute(&quot;data-cfemail&quot;);if(a){for(e=&quot;&quot;,r=parseInt(a.substr(0,2),16),n=2;a.length-n;n+=2)i=parseInt(a.substr(n,2),16)^r,e+=String.fromCharCode(i);e=document.createTextNode(e),c.parentNode.replaceChild(e,c)}}}catch(u){}}();/* ]]&gt; */&lt;/script&gt;\nFormat settings, CABAC                   : Yes\nFormat settings, ReFrames                : 10 frames\nCodec ID                                 : avc1\nCodec ID/Info                            : Advanced Video Coding\nDuration                                 : 11mn 16s\nBit rate                                 : 950 Kbps\nMaximum bit rate                         : 7 823 Kbps\nWidth                                    : 800 pixels\nHeight                                   : 450 pixels\nDisplay aspect ratio                     : 16:9\nFrame rate mode                          : Constant\nFrame rate                               : 23.976 fps\nColor space                              : YUV\nChroma subsampling                       : 4:2:0\nBit depth                                : 8 bits\nScan type                                : Progressive\nBits/(Pixel*Frame)                       : 0.110\nStream size                              : 76.6 MiB (91%)\n\nAudio\nID                                       : 2\nFormat                                   : AAC\nFormat/Info                              : Advanced Audio Codec\nFormat profile                           : LC\nCodec ID                                 : 40\nDuration                                 : 11mn 16s\nBit rate mode                            : Variable\nBit rate                                 : 96.0 Kbps\nMaximum bit rate                         : 115 Kbps\nChannel(s)                               : 2 channels\nChannel positions                        : Front: L R\nSampling rate                            : 48.0 KHz\nCompression mode                         : Lossy\nStream size                              : 7.69 MiB (9%)\nLanguage                                 : English\n\n\nText\nID                                       : 3\nFormat                                   : Timed Text\nCodec ID                                 : tx3g\nDuration                                 : 11mn 17s\nBit rate mode                            : Variable\nBit rate                                 : 159 bps\nStream size                              : 13.1 KiB (0%)\nLanguage                                 : Ukrainian\n\n\nScreenshots: &lt;a href=&quot;\nhttp://postimg.org/image/czmj4qkyt/&quot; rel=&quot;nofollow&quot; target=&quot;_NEW&quot;&gt;\nhttp://postimg.org/image/czmj4qkyt/&lt;/a&gt; &lt;a href=&quot;\nhttp://postimg.org/image/pfj8yheat/&quot; rel=&quot;nofollow&quot; target=&quot;_NEW&quot;&gt;\nhttp://postimg.org/image/pfj8yheat/&lt;/a&gt; &lt;a href=&quot;\nhttp://postimg.org/image/glschdrc5/&quot; rel=&quot;nofollow&quot; target=&quot;_NEW&quot;&gt;\nhttp://postimg.org/image/glschdrc5/&lt;/a&gt;\n\nEnglish subtitles http://subscene.com/subtitles/your-friend-the-rat/english/823303\n","torrent":{"xt":"urn:btih:6bc3c5cbc1475a8c7fb28aefb496e127ec06bf0b","amp;dn":"Your+Friend+the+Rat+%282007%29+BDRip+x264+Ukr+sub","amp;tr":["udp%3A%2F%2Ftracker.openbittorrent.com%3A80","udp%3A%2F%2Fopen.demonii.com%3A1337","udp%3A%2F%2Ftracker.coppersurfer.tk%3A6969","udp%3A%2F%2Fexodus.desync.com%3A6969"],"infoHash":"6bc3c5cbc1475a8c7fb28aefb496e127ec06bf0b","infoHashBuffer":{"type":"Buffer","data":[107,195,197,203,193,71,90,140,127,178,138,239,180,150,225,39,236,6,191,11]},"announce":[],"urlList":[]}}